[25.02.2026 14:03:29,62] FFmpeg script started 
ffmpeg version 8.0.1-essentials_build-www.gyan.dev Copyright (c) 2000-2025 the FFmpeg developers
  built with gcc 15.2.0 (Rev8, Built by MSYS2 project)
  configuration: --enable-gpl --enable-version3 --enable-static --disable-w32threads --disable-autodetect --enable-fontconfig --enable-iconv --enable-gnutls --enable-libxml2 --enable-gmp --enable-bzlib --enable-lzma --enable-zlib --enable-libsrt --enable-libssh --enable-libzmq --enable-avisynth --enable-sdl2 --enable-libwebp --enable-libx264 --enable-libx265 --enable-libxvid --enable-libaom --enable-libopenjpeg --enable-libvpx --enable-mediafoundation --enable-libass --enable-libfreetype --enable-libfribidi --enable-libharfbuzz --enable-libvidstab --enable-libvmaf --enable-libzimg --enable-amf --enable-cuda-llvm --enable-cuvid --enable-dxva2 --enable-d3d11va --enable-d3d12va --enable-ffnvcodec --enable-libvpl --enable-nvdec --enable-nvenc --enable-vaapi --enable-openal --enable-libgme --enable-libopenmpt --enable-libopencore-amrwb --enable-libmp3lame --enable-libtheora --enable-libvo-amrwbenc --enable-libgsm --enable-libopencore-amrnb --enable-libopus --enable-libspeex --enable-libvorbis --enable-librubberband
  libavutil      60.  8.100 / 60.  8.100
  libavcodec     62. 11.100 / 62. 11.100
  libavformat    62.  3.100 / 62.  3.100
  libavdevice    62.  1.100 / 62.  1.100
  libavfilter    11.  4.100 / 11.  4.100
  libswscale      9.  1.100 /  9.  1.100
  libswresample   6.  1.100 /  6.  1.100
Input #0, dshow, from 'video=Logitech BRIO':
  Duration: N/A, start: 11491.651945, bitrate: N/A
  Stream #0:0: Video: rawvideo (YUY2 / 0x32595559), yuyv422(tv, bt470bg/bt709/unknown), 640x480, 30 fps, 30 tbr, 10000k tbn, start 11491.651945
Stream mapping:
  Stream #0:0 -> #0:0 (rawvideo (native) -> h264 (libx264))
Press [q] to stop, [?] for help
[libx264 @ 0000026485217880] using cpu capabilities: MMX2 SSE2Fast SSSE3 SSE4.2 AVX FMA3 BMI2 AVX2
[libx264 @ 0000026485217880] profile High 4:2:2, level 3.0, 4:2:2, 8-bit
Output #0, mpegts, to 'udp://127.0.0.1:12345':
  Metadata:
    encoder         : Lavf62.3.100
  Stream #0:0: Video: h264, yuv422p(tv, bt470bg/bt709/unknown, progressive), 640x480, q=2-31, 30 fps, 90k tbn
    Metadata:
      encoder         : Lavc62.11.100 libx264
    Side data:
      cpb: bitrate max/min/avg: 0/0/0 buffer size: 0 vbv_delay: N/A
frame=   15 fps=0.0 q=20.0 size=      88KiB time=00:00:00.50 bitrate=1449.9kbits/s speed=0.996x elapsed=0:00:00.50    frame=   30 fps= 30 q=20.0 size=     142KiB time=00:00:00.99 bitrate=1162.6kbits/s speed=0.985x elapsed=0:00:01.01    frame=   46 fps= 30 q=18.0 size=     189KiB time=00:00:01.53 bitrate=1010.3kbits/s speed=   1x elapsed=0:00:01.53    frame=   62 fps= 30 q=19.0 size=     238KiB time=00:00:02.06 bitrate= 942.4kbits/s speed=1.01x elapsed=0:00:02.04    frame=   77 fps= 30 q=19.0 size=     280KiB time=00:00:02.56 bitrate= 894.8kbits/s speed=   1x elapsed=0:00:02.56    frame=   93 fps= 30 q=19.0 size=     326KiB time=00:00:03.09 bitrate= 860.7kbits/s speed=1.01x elapsed=0:00:03.07    frame=  108 fps= 30 q=20.0 size=     368KiB time=00:00:03.59 bitrate= 836.4kbits/s speed=   1x elapsed=0:00:03.59    frame=  123 fps= 30 q=19.0 size=     412KiB time=00:00:04.09 bitrate= 822.8kbits/s speed=0.997x elapsed=0:00:04.11    frame=  139 fps= 30 q=19.0 size=     460KiB time=00:00:04.63 bitrate= 812.5kbits/s speed=   1x elapsed=0:00:04.62    frame=  154 fps= 30 q=23.0 size=     518KiB time=00:00:05.13 bitrate= 827.4kbits/s speed=0.999x elapsed=0:00:05.14    frame=  170 fps= 30 q=22.0 size=     647KiB time=00:00:05.66 bitrate= 935.3kbits/s speed=   1x elapsed=0:00:05.65    frame=  185 fps= 30 q=23.0 size=     754KiB time=00:00:06.16 bitrate=1001.7kbits/s speed=0.999x elapsed=0:00:06.17    frame=  201 fps= 30 q=22.0 size=     861KiB time=00:00:06.69 bitrate=1052.6kbits/s speed=   1x elapsed=0:00:06.68    frame=  216 fps= 30 q=22.0 size=     957KiB time=00:00:07.19 bitrate=1088.5kbits/s speed=0.999x elapsed=0:00:07.20    frame=  231 fps= 30 q=21.0 size=    1047KiB time=00:00:07.69 bitrate=1114.3kbits/s speed=0.998x elapsed=0:00:07.71    frame=  247 fps= 30 q=22.0 size=    1149KiB time=00:00:08.23 bitrate=1143.5kbits/s speed=   1x elapsed=0:00:08.23    frame=  263 fps= 30 q=21.0 size=    1259KiB time=00:00:08.73 bitrate=1181.2kbits/s speed=0.998x elapsed=0:00:08.75    frame=  279 fps= 30 q=21.0 size=    1344KiB time=00:00:09.29 bitrate=1183.5kbits/s speed=   1x elapsed=0:00:09.30    frame=  295 fps= 30 q=21.0 size=    1418KiB time=00:00:09.83 bitrate=1181.2kbits/s speed=   1x elapsed=0:00:09.81    frame=  310 fps= 30 q=20.0 size=    1488KiB time=00:00:10.33 bitrate=1179.8kbits/s speed=0.999x elapsed=0:00:10.34    frame=  326 fps= 30 q=20.0 size=    1554KiB time=00:00:10.86 bitrate=1171.7kbits/s speed=   1x elapsed=0:00:10.86    frame=  341 fps= 30 q=22.0 size=    1628KiB time=00:00:11.36 bitrate=1173.0kbits/s speed=0.999x elapsed=0:00:11.37    frame=  357 fps= 30 q=21.0 size=    1714KiB time=00:00:11.89 bitrate=1179.9kbits/s speed=   1x elapsed=0:00:11.89    frame=  372 fps= 30 q=21.0 size=    1789KiB time=00:00:12.39 bitrate=1181.6kbits/s speed=   1x elapsed=0:00:12.40    frame=  388 fps= 30 q=22.0 size=    1883KiB time=00:00:12.93 bitrate=1192.4kbits/s speed=   1x elapsed=0:00:12.92    frame=  403 fps= 30 q=21.0 size=    1964KiB time=00:00:13.43 bitrate=1197.9kbits/s speed=   1x elapsed=0:00:13.43    frame=  419 fps= 30 q=21.0 size=    2051KiB time=00:00:13.96 bitrate=1203.2kbits/s speed=   1x elapsed=0:00:13.95    frame=  434 fps= 30 q=21.0 size=    2126KiB time=00:00:14.46 bitrate=1204.1kbits/s speed=   1x elapsed=0:00:14.46    frame=  449 fps= 30 q=20.0 size=    2193KiB time=00:00:14.96 bitrate=1200.3kbits/s speed=0.999x elapsed=0:00:14.98    frame=  465 fps= 30 q=20.0 size=    2267KiB time=00:00:15.49 bitrate=1198.2kbits/s speed=   1x elapsed=0:00:15.50    frame=  481 fps= 30 q=21.0 size=    2343KiB time=00:00:16.03 bitrate=1197.1kbits/s speed=   1x elapsed=0:00:16.01    frame=  496 fps= 30 q=21.0 size=    2412KiB time=00:00:16.53 bitrate=1195.3kbits/s speed=   1x elapsed=0:00:16.53    frame=  511 fps= 30 q=20.0 size=    2499KiB time=00:00:17.03 bitrate=1202.0kbits/s speed=0.999x elapsed=0:00:17.04    frame=  527 fps= 30 q=20.0 size=    2569KiB time=00:00:17.56 bitrate=1198.1kbits/s speed=   1x elapsed=0:00:17.56    frame=  543 fps= 30 q=20.0 size=    2636KiB time=00:00:18.09 bitrate=1193.2kbits/s speed=   1x elapsed=0:00:18.07    frame=  558 fps= 30 q=21.0 size=    2702KiB time=00:00:18.59 bitrate=1190.3kbits/s speed=   1x elapsed=0:00:18.59    frame=  573 fps= 30 q=21.0 size=    2772KiB time=00:00:19.09 bitrate=1188.9kbits/s speed=   1x elapsed=0:00:19.10    frame=  589 fps= 30 q=20.0 size=    2830KiB time=00:00:19.63 bitrate=1180.9kbits/s speed=   1x elapsed=0:00:19.62    frame=  604 fps= 30 q=20.0 size=    2895KiB time=00:00:20.13 bitrate=1177.9kbits/s speed=   1x elapsed=0:00:20.14    frame=  620 fps= 30 q=21.0 size=    2966KiB time=00:00:20.66 bitrate=1175.7kbits/s speed=   1x elapsed=0:00:20.65    frame=  635 fps= 30 q=20.0 size=    3032KiB time=00:00:21.16 bitrate=1173.5kbits/s speed=   1x elapsed=0:00:21.17    frame=  651 fps= 30 q=22.0 size=    3104KiB time=00:00:21.69 bitrate=1171.9kbits/s speed=   1x elapsed=0:00:21.68    frame=  666 fps= 30 q=22.0 size=    3210KiB time=00:00:22.19 bitrate=1184.4kbits/s speed=   1x elapsed=0:00:22.20    frame=  682 fps= 30 q=21.0 size=    3295KiB time=00:00:22.73 bitrate=1187.2kbits/s speed=   1x elapsed=0:00:22.71    frame=  697 fps= 30 q=19.0 size=    3362KiB time=00:00:23.23 bitrate=1185.5kbits/s speed=   1x elapsed=0:00:23.23    frame=  712 fps= 30 q=21.0 size=    3437KiB time=00:00:23.73 bitrate=1186.2kbits/s speed=0.999x elapsed=0:00:23.75    frame=  728 fps= 30 q=20.0 size=    3508KiB time=00:00:24.26 bitrate=1184.3kbits/s speed=   1x elapsed=0:00:24.26    frame=  744 fps= 30 q=20.0 size=    3574KiB time=00:00:24.79 bitrate=1180.5kbits/s speed=   1x elapsed=0:00:24.78    frame=  759 fps= 30 q=19.0 size=    3654KiB time=00:00:25.29 bitrate=1183.2kbits/s speed=   1x elapsed=0:00:25.29    frame=  774 fps= 30 q=19.0 size=    3708KiB time=00:00:25.79 bitrate=1177.3kbits/s speed=   1x elapsed=0:00:25.81    frame=  790 fps= 30 q=19.0 size=    3772KiB time=00:00:26.33 bitrate=1173.5kbits/s speed=   1x elapsed=0:00:26.32    frame=  806 fps= 30 q=19.0 size=    3826KiB time=00:00:26.86 bitrate=1166.5kbits/s speed=   1x elapsed=0:00:26.84    frame=  821 fps= 30 q=19.0 size=    3869KiB time=00:00:27.36 bitrate=1158.3kbits/s speed=   1x elapsed=0:00:27.36    frame=  836 fps= 30 q=20.0 size=    3922KiB time=00:00:27.86 bitrate=1152.9kbits/s speed=   1x elapsed=0:00:27.87    frame=  852 fps= 30 q=20.0 size=    3982KiB time=00:00:28.39 bitrate=1148.5kbits/s speed=   1x elapsed=0:00:28.39    frame=  867 fps= 30 q=20.0 size=    4037KiB time=00:00:28.89 bitrate=1144.3kbits/s speed=   1x elapsed=0:00:28.90    frame=  883 fps= 30 q=20.0 size=    4104KiB time=00:00:29.43 bitrate=1142.2kbits/s speed=   1x elapsed=0:00:29.42    frame=  898 fps= 30 q=20.0 size=    4168KiB time=00:00:29.93 bitrate=1140.6kbits/s speed=   1x elapsed=0:00:29.93    frame=  914 fps= 30 q=19.0 size=    4229KiB time=00:00:30.46 bitrate=1137.2kbits/s speed=   1x elapsed=0:00:30.45    [25.02.2026 14:04:02,03] FFmpeg script ended with code 1 
